<svg width="1152" height="700" viewBox="0 0 1152 700" fill="none" xmlns="http://www.w3.org/2000/svg">
<rect width="1152" height="700" fill="white"/>
<circle cx="120" cy="202" r="50" fill="#EB5757"/>
<circle cx="533" cy="570" r="50" fill="#2F80ED"/>
<circle cx="533" cy="420" r="50" fill="#2F80ED"/>
<circle cx="533" cy="270" r="50" fill="#2F80ED"/>
<circle cx="533" cy="120" r="50" fill="#2F80ED"/>
<circle cx="946" cy="420" r="50" fill="#219653"/>
<circle cx="946" cy="270" r="50" fill="#219653"/>
<circle cx="120" cy="498" r="50" fill="#EB5757"/>
<circle cx="120" cy="350" r="50" fill="#EB5757"/>
<line x1="167.78" y1="190.024" x2="482.78" y2="119.024" stroke="black" stroke-width="2"/>
<line x1="171.234" y1="194.028" x2="483.234" y2="269.028" stroke="black" stroke-width="2"/>
<line x1="169.408" y1="349.194" x2="482.408" y2="119.194" stroke="black" stroke-width="2"/>
<line x1="169.752" y1="349.031" x2="482.752" y2="269.031" stroke="black" stroke-width="2"/>
<line x1="171.219" y1="349.024" x2="483.219" y2="419.024" stroke="black" stroke-width="2"/>
<line x1="170.575" y1="349.182" x2="483.575" y2="569.182" stroke="black" stroke-width="2"/>
<line x1="168.581" y1="194.186" x2="483.581" y2="419.186" stroke="black" stroke-width="2"/>
<line x1="166.767" y1="190.358" x2="483.767" y2="569.358" stroke="black" stroke-width="2"/>
<line x1="169.23" y1="497.362" x2="482.23" y2="119.362" stroke="black" stroke-width="2"/>
<line x1="167.414" y1="497.19" x2="482.414" y2="269.19" stroke="black" stroke-width="2"/>
<line x1="165.755" y1="499.03" x2="482.755" y2="419.03" stroke="black" stroke-width="2"/>
<line x1="166.216" y1="499.024" x2="483.216" y2="569.023" stroke="black" stroke-width="2"/>
<line x1="583.432" y1="119.098" x2="896.432" y2="269.098" stroke="black" stroke-width="2"/>
<line x1="583.002" y1="268" x2="896.001" y2="268.725" stroke="black" stroke-width="2"/>
<line x1="582.997" y1="420" x2="895.997" y2="419" stroke="black" stroke-width="2"/>
<line x1="582.57" y1="569.097" x2="895.57" y2="420.097" stroke="black" stroke-width="2"/>
<line x1="583.692" y1="119.278" x2="896.692" y2="419.278" stroke="black" stroke-width="2"/>
<line x1="583.435" y1="269.099" x2="896.435" y2="420.099" stroke="black" stroke-width="2"/>
<line x1="582.568" y1="419.098" x2="895.568" y2="269.098" stroke="black" stroke-width="2"/>
<line x1="582.308" y1="569.278" x2="895.308" y2="269.278" stroke="black" stroke-width="2"/>
</svg>
